<svg width="99" height="75" viewBox="0 0 99 75" fill="none" xmlns="http://www.w3.org/2000/svg">
  <path d="M79.6856 9.37477H44.2575C42.9315 9.37477 41.6597 8.84799 40.722 7.91031L34.2762 1.46447C33.3385 0.526784 32.0667 0 30.7406 0H9.37477C4.21865 0 0 4.21865 0 9.37477V65.6234C0 70.7795 4.21865 74.9982 9.37477 74.9982H82.0292C86.0135 74.9982 89.0603 71.9514 89.0603 67.9671V18.7495C89.0603 13.5934 84.8417 9.37477 79.6856 9.37477Z" fill="#0251CD"/>
  <path d="M89.5283 23.4395H26.483C22.03 23.4395 18.0457 26.7206 17.3426 31.1736L9.37402 75.0007H83.6691C88.1221 75.0007 92.1064 71.7195 92.8095 67.2665L98.6687 34.4548C99.8406 28.8299 95.3876 23.4395 89.5283 23.4395V23.4395Z" fill="#2A85FF"/>
</svg>
