<svg xmlns="http://www.w3.org/2000/symbol" fill="none" xmlns:xlink="http://www.w3.org/1999/xlink">
  <symbol viewBox="0 0 13 12" xmlns="http://www.w3.org/2000/svg" xmlns:xlink="http://www.w3.org/1999/xlink"
    fill="none" id="plus">
    <path d="M6.60547 1V11" stroke-linecap="round" stroke-linejoin="round" />
    <path d="M1.44629 6H11.7651" stroke-linecap="round" stroke-linejoin="round" />
  </symbol>

  <symbol viewBox="0 0 14 8" xmlns="http://www.w3.org/2000/svg" xmlns:xlink="http://www.w3.org/1999/xlink"
    fill="none" id="arrow">
    <path d="M13 6.66602L7 1.33268L1 6.66602" stroke-linecap="round" stroke-linejoin="round" />
  </symbol>

  <symbol viewBox="0 0 18 17" xmlns="http://www.w3.org/2000/svg" xmlns:xlink="http://www.w3.org/1999/xlink"
    fill="none" id="search">
    <path
      d="M8.11115 14.7223C12.0385 14.7223 15.2223 11.5385 15.2223 7.61115C15.2223 3.68377 12.0385 0.5 8.11115 0.5C4.18377 0.5 1 3.68377 1 7.61115C1 11.5385 4.18377 14.7223 8.11115 14.7223Z"
      stroke-linecap="round" stroke-linejoin="round" />
    <path d="M17.0005 16.4995L13.1338 12.6328" stroke-linecap="round" stroke-linejoin="round" />
  </symbol>

  <symbol viewBox="0 0 18 18" xmlns="http://www.w3.org/2000/svg" xmlns:xlink="http://www.w3.org/1999/xlink"
    fill="none" id="close">
    <path d="M17 1L1 17" stroke-width="2" stroke-linecap="round" stroke-linejoin="round" />
    <path d="M1 1L17 17" stroke-width="2" stroke-linecap="round" stroke-linejoin="round" />
  </symbol>

  <symbol viewBox="0 0 32 32" xmlns="http://www.w3.org/2000/svg" xmlns:xlink="http://www.w3.org/1999/xlink"
    fill="none" id="success">
    <path
      d="M16 31C24.2843 31 31 24.2843 31 16C31 7.71573 24.2843 1 16 1C7.71573 1 1 7.71573 1 16C1 24.2843 7.71573 31 16 31Z"
      stroke-width="2" stroke-linecap="round" stroke-linejoin="round" />
    <path d="M23.0909 11.5L14.0909 20.5L10 16.4091" stroke-width="2" stroke-linecap="round"
      stroke-linejoin="round" />
  </symbol>

  <symbol viewBox="0 0 32 33" xmlns="http://www.w3.org/2000/svg" xmlns:xlink="http://www.w3.org/1999/xlink"
    fill="none" id="error">
    <path
      d="M16 31.5C24.2843 31.5 31 24.7843 31 16.5C31 8.21573 24.2843 1.5 16 1.5C7.71573 1.5 1 8.21573 1 16.5C1 24.7843 7.71573 31.5 16 31.5Z"
      stroke-width="2" stroke-linecap="round" stroke-linejoin="round" />
    <path d="M21.4006 11.1006L10.6006 21.9006" stroke-width="2" stroke-linecap="round" stroke-linejoin="round" />
    <path d="M10.6006 11.1006L21.4006 21.9006" stroke-width="2" stroke-linecap="round" stroke-linejoin="round" />
  </symbol>

  <symbol viewBox="0 0 32 32" xmlns="http://www.w3.org/2000/svg" xmlns:xlink="http://www.w3.org/1999/xlink"
    fill="none" id="loading">
    <path
      d="M16 31C24.2843 31 31 24.2843 31 16C31 7.71573 24.2843 1 16 1C7.71573 1 1 7.71573 1 16C1 24.2843 7.71573 31 16 31Z"
      stroke-width="2" stroke-linecap="round" stroke-linejoin="round" />
    <path d="M16 7V16L22 19" stroke-width="2" stroke-linecap="round" stroke-linejoin="round" />
  </symbol>

  <symbol viewBox="0 0 25 25" xmlns="http://www.w3.org/2000/svg" xmlns:xlink="http://www.w3.org/1999/xlink"
     id="logo">
    <path fill-rule="evenodd" clip-rule="evenodd"
      d="M22.7274 0C21.4722 0 20.4546 1.01753 20.4546 2.27273V9.09091C20.4546 10.3461 21.4722 11.3636 22.7274 11.3636C23.9826 11.3636 25.0001 10.3461 25.0001 9.09091V2.27273C25.0001 1.01754 23.9826 0 22.7274 0ZM15.909 2.27271C14.6538 2.27271 13.6363 3.29024 13.6363 4.54543V6.81816C13.6363 8.07335 14.6538 9.09089 15.909 9.09089C17.1642 9.09089 18.1817 8.07335 18.1817 6.81816V4.54543C18.1817 3.29024 17.1642 2.27271 15.909 2.27271ZM11.3638 20.4546C11.3638 21.7098 10.3463 22.7273 9.09109 22.7273C7.83589 22.7273 6.81836 21.7098 6.81836 20.4546V18.1818C6.81836 16.9266 7.83589 15.9091 9.09109 15.9091C10.3463 15.9091 11.3638 16.9266 11.3638 18.1818V20.4546ZM2.27273 25C3.52792 25 4.54545 23.9825 4.54545 22.7273V15.9091C4.54545 14.6539 3.52792 13.6364 2.27273 13.6364C1.01753 13.6364 0 14.6539 0 15.9091V22.7273C0 23.9825 1.01753 25 2.27273 25Z"
      fill-opacity="0.5" />
    <path fill-rule="evenodd" clip-rule="evenodd"
      d="M2.84091 0C1.27192 0 0 1.27192 0 2.84091V8.52273C0 10.0917 1.27192 11.3636 2.84091 11.3636H8.52273C10.0917 11.3636 11.3636 10.0917 11.3636 8.52273V2.84091C11.3636 1.27192 10.0917 0 8.52273 0H2.84091ZM16.4124 13.5714C14.8435 13.5714 13.5715 14.8433 13.5715 16.4123V22.0941C13.5715 23.6631 14.8434 24.935 16.4124 24.935H22.0943C23.6632 24.935 24.9352 23.6631 24.9352 22.0941V16.4123C24.9352 14.8433 23.6633 13.5714 22.0943 13.5714H16.4124Z"
      fill-opacity="0.9" />
  </symbol>

  <symbol viewBox="0 0 21 21" xmlns="http://www.w3.org/2000/svg" xmlns:xlink="http://www.w3.org/1999/xlink"
    fill="none" id="more">
    <path fill-rule="evenodd" clip-rule="evenodd"
      d="M6 10.5C6 11.3284 5.32843 12 4.5 12C3.67157 12 3 11.3284 3 10.5C3 9.67157 3.67157 9 4.5 9C5.32843 9 6 9.67157 6 10.5ZM12.2998 10.5C12.2998 11.3284 11.6282 12 10.7998 12C9.97138 12 9.2998 11.3284 9.2998 10.5C9.2998 9.67157 9.97138 9 10.7998 9C11.6282 9 12.2998 9.67157 12.2998 10.5ZM17.0999 12C17.9283 12 18.5999 11.3284 18.5999 10.5C18.5999 9.67157 17.9283 9 17.0999 9C16.2714 9 15.5999 9.67157 15.5999 10.5C15.5999 11.3284 16.2714 12 17.0999 12Z"
      fill="black" />
  </symbol>

  <symbol viewBox="0 0 21 21" xmlns="http://www.w3.org/2000/svg" xmlns:xlink="http://www.w3.org/1999/xlink"
    fill="none" id="download">
    <path
      d="M17 12.6667V15.5556C17 15.9387 16.8478 16.3061 16.5769 16.577C16.306 16.8478 15.9386 17 15.5556 17H5.44444C5.06135 17 4.69395 16.8478 4.42307 16.577C4.15218 16.3061 4 15.9387 4 15.5556V12.6667"
      stroke-linecap="round" stroke-linejoin="round" />
    <path d="M6.88892 9.05554L10.5 12.6667L14.1111 9.05554" stroke-linecap="round" stroke-linejoin="round" />
    <path d="M10.5 12.6667V4" stroke-linecap="round" stroke-linejoin="round" />
  </symbol>

  <symbol viewBox="0 0 21 21" xmlns="http://www.w3.org/2000/svg" xmlns:xlink="http://www.w3.org/1999/xlink"
    fill="none" id="delete">
    <path d="M5 6.59998H6.3H16.7" stroke-linecap="round" stroke-linejoin="round" />
    <path
      d="M15.4 6.6V15.7C15.4 16.0448 15.2631 16.3754 15.0193 16.6192C14.7755 16.863 14.4448 17 14.1 17H7.60005C7.25527 17 6.92461 16.863 6.68081 16.6192C6.43701 16.3754 6.30005 16.0448 6.30005 15.7V6.6M8.25005 6.6V5.3C8.25005 4.95522 8.38701 4.62456 8.63081 4.38076C8.87461 4.13696 9.20527 4 9.55005 4H12.15C12.4948 4 12.8255 4.13696 13.0693 4.38076C13.3131 4.62456 13.45 4.95522 13.45 5.3V6.6"
      stroke-linecap="round" stroke-linejoin="round" />
  </symbol>

  <symbol viewBox="0 0 21 21" xmlns="http://www.w3.org/2000/svg" xmlns:xlink="http://www.w3.org/1999/xlink"
    fill="none" id="edit">
    <path
      d="M9.81473 5.37054H5.29216C4.94946 5.37054 4.62079 5.50668 4.37847 5.74901C4.13614 5.99134 4 6.32 4 6.66271V15.7078C4 16.0506 4.13614 16.3792 4.37847 16.6215C4.62079 16.8639 4.94946 17 5.29216 17H14.3373C14.68 17 15.0087 16.8639 15.251 16.6215C15.4933 16.3792 15.6295 16.0506 15.6295 15.7078V11.1853"
       stroke-linecap="round" stroke-linejoin="round" />
    <path
      d="M14.6606 4.40142C14.9176 4.1444 15.2662 4 15.6297 4C15.9932 4 16.3418 4.1444 16.5988 4.40142C16.8558 4.65845 17.0002 5.00705 17.0002 5.37055C17.0002 5.73404 16.8558 6.08264 16.5988 6.33967L10.461 12.4774L7.87671 13.1235L8.52279 10.5392L14.6606 4.40142Z"
       stroke-linecap="round" stroke-linejoin="round" />
  </symbol>

  <symbol viewBox="0 0 21 21" xmlns="http://www.w3.org/2000/svg" xmlns:xlink="http://www.w3.org/1999/xlink"
    fill="none" id="logout">
    <path d="M8.33333 17H5.44444C5.06135 17 4.69395 16.8478 4.42307 16.5769C4.15218 16.306 4 15.9386 4 15.5556V5.44444C4 5.06135 4.15218 4.69395 4.42307 4.42307C4.69395 4.15218 5.06135 4 5.44444 4H8.33333" stroke-linecap="round" stroke-linejoin="round"/>
    <path d="M13.3889 14.1111L17 10.5L13.3889 6.88892" stroke-linecap="round" stroke-linejoin="round"/>
    <path d="M16.9999 10.5H8.33325" stroke-linecap="round" stroke-linejoin="round"/>
  </symbol>

  <symbol viewBox="0 0 21 21" xmlns="http://www.w3.org/2000/svg" xmlns:xlink="http://www.w3.org/1999/xlink"
    fill="none" id="qrcode">
    <path d="M17 13.75H15.375H10.5V17M10.5 4V10.5M10.5 10.5H10.5081M10.5 10.5H17M13.75 17H17M4 10.5H7.25M4.8125 7.25H6.4375C6.65299 7.25 6.85965 7.1644 7.01202 7.01202C7.1644 6.85965 7.25 6.65299 7.25 6.4375V4.8125C7.25 4.59701 7.1644 4.39035 7.01202 4.23798C6.85965 4.0856 6.65299 4 6.4375 4H4.8125C4.59701 4 4.39035 4.0856 4.23798 4.23798C4.0856 4.39035 4 4.59701 4 4.8125V6.4375C4 6.65299 4.0856 6.85965 4.23798 7.01202C4.39035 7.1644 4.59701 7.25 4.8125 7.25ZM14.5625 7.25H16.1875C16.403 7.25 16.6097 7.1644 16.762 7.01202C16.9144 6.85965 17 6.65299 17 6.4375V4.8125C17 4.59701 16.9144 4.39035 16.762 4.23798C16.6097 4.0856 16.403 4 16.1875 4H14.5625C14.347 4 14.1403 4.0856 13.988 4.23798C13.8356 4.39035 13.75 4.59701 13.75 4.8125V6.4375C13.75 6.65299 13.8356 6.85965 13.988 7.01202C14.1403 7.1644 14.347 7.25 14.5625 7.25ZM4.8125 17H6.4375C6.65299 17 6.85965 16.9144 7.01202 16.762C7.1644 16.6097 7.25 16.403 7.25 16.1875V14.5625C7.25 14.347 7.1644 14.1403 7.01202 13.988C6.85965 13.8356 6.65299 13.75 6.4375 13.75H4.8125C4.59701 13.75 4.39035 13.8356 4.23798 13.988C4.0856 14.1403 4 14.347 4 14.5625V16.1875C4 16.403 4.0856 16.6097 4.23798 16.762C4.39035 16.9144 4.59701 17 4.8125 17Z" stroke-width="1.2" stroke-linecap="round" stroke-linejoin="round"/>
  </symbol>

</svg>