<svg width="103" height="25" viewBox="0 0 103 25" fill="none" xmlns="http://www.w3.org/2000/svg">
  <rect width="11.3636" height="11.3636" rx="2.84091" fill="#0066FF" fill-opacity="0.9"/>
  <rect x="13.6362" y="2.27271" width="4.54545" height="6.81818" rx="2.27273" fill="#0066FF" fill-opacity="0.5"/>
  <rect x="20.4546" width="4.54545" height="11.3636" rx="2.27273" fill="#0066FF" fill-opacity="0.5"/>
  <rect x="11.3638" y="22.7273" width="4.54545" height="6.81818" rx="2.27273" transform="rotate(180 11.3638 22.7273)" fill="#0066FF" fill-opacity="0.5"/>
  <rect x="4.54541" y="25" width="4.54545" height="11.3636" rx="2.27273" transform="rotate(180 4.54541 25)" fill="#0066FF" fill-opacity="0.5"/>
  <rect x="13.5715" y="13.5714" width="11.3636" height="11.3636" rx="2.84091" fill="#0066FF" fill-opacity="0.9"/>
  <path d="M48.428 16.836C48.776 17.064 48.968 17.286 49.004 17.502C49.04 17.718 48.938 18 48.698 18.348C48.53 18.588 48.374 18.75 48.23 18.834C48.086 18.918 47.93 18.936 47.762 18.888C47.606 18.852 47.414 18.762 47.186 18.618L45.53 17.502C45.014 17.982 44.42 18.366 43.748 18.654C43.088 18.93 42.386 19.068 41.642 19.068C40.778 19.068 39.968 18.906 39.212 18.582C38.468 18.246 37.808 17.79 37.232 17.214C36.656 16.626 36.206 15.954 35.882 15.198C35.558 14.43 35.396 13.608 35.396 12.732C35.396 11.832 35.552 10.992 35.864 10.212C36.188 9.42 36.626 8.73 37.178 8.142C37.742 7.542 38.39 7.074 39.122 6.738C39.866 6.402 40.658 6.234 41.498 6.234C42.362 6.234 43.166 6.402 43.91 6.738C44.666 7.062 45.326 7.518 45.89 8.106C46.466 8.682 46.91 9.36 47.222 10.14C47.546 10.92 47.708 11.76 47.708 12.66C47.708 13.224 47.636 13.77 47.492 14.298C47.36 14.826 47.162 15.324 46.898 15.792L48.428 16.836ZM41.552 16.872C42.104 16.872 42.62 16.764 43.1 16.548C43.58 16.332 44 16.032 44.36 15.648C44.732 15.264 45.02 14.82 45.224 14.316C45.428 13.8 45.53 13.248 45.53 12.66C45.53 12.072 45.422 11.526 45.206 11.022C45.002 10.506 44.714 10.056 44.342 9.672C43.982 9.276 43.562 8.97 43.082 8.754C42.614 8.538 42.11 8.43 41.57 8.43C41.018 8.43 40.502 8.538 40.022 8.754C39.542 8.97 39.116 9.276 38.744 9.672C38.384 10.056 38.102 10.506 37.898 11.022C37.694 11.526 37.592 12.072 37.592 12.66C37.592 13.248 37.694 13.8 37.898 14.316C38.114 14.82 38.402 15.264 38.762 15.648C39.122 16.032 39.542 16.332 40.022 16.548C40.502 16.764 41.012 16.872 41.552 16.872Z" fill="#012033"/>
  <path d="M51.7901 18.906C51.4541 18.906 51.2081 18.858 51.0521 18.762C50.9081 18.666 50.8121 18.534 50.7641 18.366C50.7281 18.186 50.7101 18 50.7101 17.808V7.422C50.7101 7.23 50.7341 7.056 50.7821 6.9C50.8301 6.732 50.9261 6.6 51.0701 6.504C51.2261 6.396 51.4721 6.342 51.8081 6.342H55.6601C56.2121 6.342 56.7341 6.432 57.2261 6.612C57.7301 6.78 58.1801 7.044 58.5761 7.404C58.9721 7.752 59.2841 8.196 59.5121 8.736C59.7521 9.264 59.8721 9.882 59.8721 10.59C59.8721 11.058 59.8001 11.526 59.6561 11.994C59.5121 12.45 59.2961 12.876 59.0081 13.272C58.7321 13.656 58.3781 13.986 57.9461 14.262C57.5141 14.538 57.0041 14.718 56.4161 14.802H52.8881V17.826C52.8881 18.018 52.8641 18.198 52.8161 18.366C52.7801 18.534 52.6841 18.666 52.5281 18.762C52.3841 18.858 52.1381 18.906 51.7901 18.906ZM59.4581 18.636C59.1101 18.876 58.8221 18.966 58.5941 18.906C58.3781 18.846 58.1621 18.654 57.9461 18.33L54.9221 13.758L57.3521 13.434L59.7461 17.07C59.9141 17.31 60.0161 17.514 60.0521 17.682C60.0881 17.85 60.0581 18.006 59.9621 18.15C59.8661 18.294 59.6981 18.456 59.4581 18.636ZM52.8881 12.642H55.9301C56.1461 12.642 56.3561 12.606 56.5601 12.534C56.7761 12.45 56.9681 12.324 57.1361 12.156C57.3041 11.976 57.4361 11.76 57.5321 11.508C57.6401 11.244 57.6941 10.932 57.6941 10.572C57.6941 10.14 57.6101 9.774 57.4421 9.474C57.2741 9.162 57.0341 8.928 56.7221 8.772C56.4221 8.604 56.0561 8.52 55.6241 8.52H52.8881V12.642Z" fill="#012033"/>
  <path d="M67.7812 18.996C67.1932 18.996 66.5992 18.912 65.9992 18.744C65.3992 18.564 64.8232 18.3 64.2712 17.952C63.7192 17.592 63.2272 17.154 62.7952 16.638C62.3752 16.11 62.0392 15.504 61.7872 14.82C61.5352 14.124 61.4092 13.356 61.4092 12.516C61.4092 11.688 61.5352 10.944 61.7872 10.284C62.0392 9.612 62.3752 9.024 62.7952 8.52C63.2272 8.016 63.7132 7.596 64.2532 7.26C64.8052 6.924 65.3812 6.672 65.9812 6.504C66.5932 6.324 67.1992 6.228 67.7992 6.216C68.4112 6.216 68.9392 6.282 69.3832 6.414C69.8272 6.546 70.1872 6.69 70.4632 6.846C70.7392 6.99 70.9252 7.092 71.0212 7.152C71.2132 7.272 71.3932 7.41 71.5612 7.566C71.7412 7.71 71.8372 7.89 71.8492 8.106C71.8612 8.25 71.8432 8.382 71.7952 8.502C71.7472 8.61 71.6812 8.724 71.5972 8.844C71.4532 9.048 71.3092 9.198 71.1652 9.294C71.0212 9.39 70.8772 9.438 70.7332 9.438C70.6012 9.438 70.4752 9.402 70.3552 9.33C70.2472 9.258 70.1092 9.168 69.9412 9.06C69.8692 9.012 69.7372 8.94 69.5452 8.844C69.3652 8.736 69.1192 8.64 68.8072 8.556C68.5072 8.472 68.1412 8.43 67.7092 8.43C67.1932 8.43 66.6892 8.52 66.1972 8.7C65.7052 8.88 65.2612 9.15 64.8652 9.51C64.4812 9.858 64.1752 10.296 63.9472 10.824C63.7192 11.34 63.6052 11.934 63.6052 12.606C63.6052 13.278 63.7192 13.878 63.9472 14.406C64.1752 14.922 64.4812 15.36 64.8652 15.72C65.2612 16.068 65.7052 16.332 66.1972 16.512C66.6892 16.692 67.1932 16.782 67.7092 16.782C68.1172 16.782 68.4652 16.746 68.7532 16.674C69.0532 16.59 69.3052 16.494 69.5092 16.386C69.7252 16.266 69.8872 16.176 69.9952 16.116C70.1272 16.032 70.2532 15.954 70.3732 15.882C70.4932 15.81 70.6192 15.774 70.7512 15.774C70.8952 15.774 71.0332 15.822 71.1652 15.918C71.3092 16.014 71.4472 16.17 71.5792 16.386C71.6632 16.518 71.7292 16.644 71.7772 16.764C71.8252 16.884 71.8432 17.01 71.8312 17.142C71.8192 17.358 71.7232 17.544 71.5432 17.7C71.3752 17.844 71.1952 17.97 71.0032 18.078C70.9072 18.138 70.7212 18.246 70.4452 18.402C70.1812 18.546 69.8272 18.678 69.3832 18.798C68.9392 18.93 68.4052 18.996 67.7812 18.996Z" fill="#012033"/>
  <path d="M77.7762 19.032C77.2002 19.032 76.6362 18.924 76.0842 18.708C75.5442 18.48 75.0522 18.162 74.6082 17.754C74.1762 17.346 73.8282 16.866 73.5642 16.314C73.3122 15.762 73.1862 15.156 73.1862 14.496C73.1862 13.86 73.3062 13.266 73.5462 12.714C73.7862 12.162 74.1162 11.676 74.5362 11.256C74.9562 10.836 75.4362 10.512 75.9762 10.284C76.5282 10.044 77.1162 9.924 77.7402 9.924C78.5802 9.924 79.3422 10.128 80.0262 10.536C80.7102 10.932 81.2562 11.472 81.6642 12.156C82.0722 12.84 82.2762 13.614 82.2762 14.478C82.2762 15.162 82.1502 15.786 81.8982 16.35C81.6462 16.902 81.3042 17.382 80.8722 17.79C80.4402 18.186 79.9542 18.492 79.4142 18.708C78.8862 18.924 78.3402 19.032 77.7762 19.032ZM77.7402 16.908C78.1362 16.908 78.5142 16.812 78.8742 16.62C79.2462 16.416 79.5462 16.128 79.7742 15.756C80.0142 15.384 80.1342 14.946 80.1342 14.442C80.1342 13.974 80.0262 13.56 79.8102 13.2C79.6062 12.84 79.3242 12.558 78.9642 12.354C78.6042 12.15 78.1902 12.048 77.7222 12.048C77.2782 12.048 76.8762 12.156 76.5162 12.372C76.1562 12.576 75.8682 12.864 75.6522 13.236C75.4482 13.596 75.3462 14.004 75.3462 14.46C75.3462 14.964 75.4602 15.402 75.6882 15.774C75.9162 16.134 76.2102 16.416 76.5702 16.62C76.9422 16.812 77.3322 16.908 77.7402 16.908Z" fill="#012033"/>
  <path d="M87.6868 18.906C87.1348 18.906 86.6128 18.792 86.1208 18.564C85.6288 18.336 85.1968 18.024 84.8248 17.628C84.4528 17.22 84.1588 16.746 83.9428 16.206C83.7268 15.654 83.6188 15.066 83.6188 14.442C83.6188 13.842 83.7268 13.278 83.9428 12.75C84.1588 12.21 84.4528 11.742 84.8248 11.346C85.2088 10.938 85.6468 10.62 86.1388 10.392C86.6308 10.164 87.1468 10.05 87.6868 10.05C88.2628 10.05 88.7788 10.164 89.2348 10.392C89.6908 10.62 90.0748 10.938 90.3868 11.346C90.7108 11.742 90.9568 12.21 91.1248 12.75C91.2928 13.278 91.3828 13.848 91.3948 14.46C91.3948 15.072 91.3108 15.648 91.1428 16.188C90.9868 16.716 90.7468 17.184 90.4228 17.592C90.1108 18 89.7208 18.324 89.2528 18.564C88.7968 18.792 88.2748 18.906 87.6868 18.906ZM87.9748 16.8C88.3948 16.8 88.7668 16.704 89.0908 16.512C89.4268 16.308 89.6908 16.032 89.8828 15.684C90.0868 15.336 90.1888 14.94 90.1888 14.496C90.1888 14.04 90.0868 13.638 89.8828 13.29C89.6908 12.942 89.4268 12.666 89.0908 12.462C88.7668 12.258 88.3948 12.156 87.9748 12.156C87.5548 12.156 87.1768 12.258 86.8408 12.462C86.5048 12.654 86.2348 12.93 86.0308 13.29C85.8388 13.638 85.7428 14.04 85.7428 14.496C85.7428 14.94 85.8388 15.336 86.0308 15.684C86.2348 16.032 86.5048 16.308 86.8408 16.512C87.1888 16.704 87.5668 16.8 87.9748 16.8ZM91.3048 18.906C90.9688 18.906 90.7228 18.852 90.5668 18.744C90.4108 18.624 90.3088 18.438 90.2608 18.186V7.098C90.2608 6.894 90.2728 6.714 90.2968 6.558C90.3328 6.39 90.4228 6.258 90.5668 6.162C90.7228 6.054 90.9628 6 91.2868 6C91.6348 6 91.8808 6.048 92.0248 6.144C92.1688 6.24 92.2588 6.372 92.2948 6.54C92.3428 6.696 92.3668 6.876 92.3668 7.08V17.808C92.3668 18.012 92.3488 18.198 92.3128 18.366C92.2768 18.534 92.1808 18.666 92.0248 18.762C91.8808 18.858 91.6408 18.906 91.3048 18.906Z" fill="#012033"/>
  <path d="M98.6884 19.032C97.9084 19.032 97.2244 18.906 96.6364 18.654C96.0604 18.402 95.5744 18.06 95.1784 17.628C94.7944 17.184 94.5004 16.692 94.2964 16.152C94.1044 15.6 94.0084 15.03 94.0084 14.442C94.0084 13.578 94.2064 12.81 94.6024 12.138C94.9984 11.466 95.5444 10.938 96.2404 10.554C96.9484 10.17 97.7584 9.978 98.6704 9.978C99.3184 9.978 99.8884 10.08 100.38 10.284C100.872 10.488 101.28 10.758 101.604 11.094C101.94 11.418 102.192 11.778 102.36 12.174C102.54 12.57 102.63 12.954 102.63 13.326C102.63 13.962 102.474 14.424 102.162 14.712C101.862 15 101.484 15.144 101.028 15.144H96.2764C96.2884 15.552 96.4144 15.906 96.6544 16.206C96.9064 16.506 97.2184 16.74 97.5904 16.908C97.9744 17.064 98.3644 17.142 98.7604 17.142C99.0604 17.142 99.3244 17.124 99.5524 17.088C99.7924 17.052 99.9964 17.01 100.164 16.962C100.332 16.902 100.476 16.842 100.596 16.782C100.728 16.722 100.848 16.668 100.956 16.62C101.064 16.572 101.166 16.542 101.262 16.53C101.394 16.518 101.526 16.548 101.658 16.62C101.79 16.692 101.898 16.818 101.982 16.998C102.054 17.118 102.102 17.232 102.126 17.34C102.162 17.436 102.18 17.532 102.18 17.628C102.18 17.868 102.036 18.096 101.748 18.312C101.46 18.516 101.052 18.684 100.524 18.816C100.008 18.96 99.3964 19.032 98.6884 19.032ZM96.2764 13.866H99.9664C100.17 13.866 100.326 13.836 100.434 13.776C100.542 13.704 100.596 13.56 100.596 13.344C100.596 13.068 100.512 12.822 100.344 12.606C100.176 12.378 99.9484 12.204 99.6604 12.084C99.3724 11.952 99.0364 11.886 98.6524 11.886C98.2084 11.886 97.8064 11.976 97.4464 12.156C97.0864 12.324 96.7984 12.558 96.5824 12.858C96.3784 13.158 96.2764 13.494 96.2764 13.866Z" fill="#012033"/>
</svg>
